<svg version="1.2" xmlns="http://www.w3.org/2000/svg" viewBox="-47 -20 500 500" width="500" height="500">
	<defs>
		<linearGradient id="g1" x2="1" gradientUnits="userSpaceOnUse" gradientTransform="matrix(0,180.037,-393.603,0,234.049,411.837)">
			<stop offset=".134" stop-color="#01ebeb" stop-opacity=".65"/>
			<stop offset=".398" stop-color="#537dc3"/>
		</linearGradient>
		<linearGradient id="g2" x2="1" gradientUnits="userSpaceOnUse" gradientTransform="matrix(0,32.882,-340.159,0,185.341,426.095)">
			<stop offset=".536" stop-color="#03f9f9" stop-opacity=".65"/>
			<stop offset=".851" stop-color="#6294e7"/>
		</linearGradient>
		<linearGradient id="g3" x2="1" gradientUnits="userSpaceOnUse" gradientTransform="matrix(0,11.831,75.59,0,279.668,460.536)">
			<stop offset=".009" stop-color="#03f9f9" stop-opacity=".65"/>
			<stop offset=".34" stop-color="#537dc3"/>
		</linearGradient>
		<linearGradient id="g4" x2="1" gradientUnits="userSpaceOnUse" gradientTransform="matrix(0,40.374,-427.451,0,205.223,443.385)">
			<stop offset="0" stop-color="#03f9f9" stop-opacity=".65"/>
			<stop offset=".295" stop-color="#13346b"/>
		</linearGradient>
	</defs>
	<style>
		.s0 { fill: url(#g1) } 
		.s1 { fill: url(#g2) } 
		.s2 { fill: url(#g3) } 
		.s3 { fill: url(#g4) } 
	</style>
	<g id="Layer 1">
		<g id="&lt;Group&gt;">
			<path id="&lt;Path&gt;" class="s0" d="m450.13 602.6h-447.13c0-10.26 21-11.21 21-21.5 0-4.33 5.31-21.75 5.89-25.82 1.09-7.61 5.88-11.04 7.94-16.53 2.77-7.38 5.7-12.89 8.33-20.3 2.92-8.16 6.01-15.02 9.55-20.65 3.34-5.32 5.98-10.72 9-17.2 1.28-2.73 2.53-5.32 3.7-8.45 1.93-5.09 2.28-5.58 4.79-2.97 2.84 2.97 6.24 5.52 9.37 6.54 3.17 1.05 6.92 4.5 9.95 2.82 3.19-1.75 6.67-5.38 9.58-9.44 1.28-1.83 2.95-3.26 4.47-3.89 2.03-0.88 2.36 1.19 3.9 5.75 1.32 3.86 1.72 5.66 3.28 3.42 2.38-3.42 3.59-11.38 6.34-7.58 2.05 2.79 3.23 9.5 5.67 10.14 2.63 0.67 6.63-6.07 8.82-9.67 5.57-9.15 8.87-26.44 14.62-34.8 2.66 7.73 6.52-9.67 8.71-14.44 1.93-4.18 2.62-4.35 4.9-1.62 2.01 2.44 3.59 5.2 5.4 9.06 1.39 2.96 2.94 7.61 4.58 8.74 0.96 0.7 2.1-0.61 3.07-0.03 1.06 0.64 2.11 3.02 3.18 4.04 3.68 3.4 8.5 3.02 12.45 2.5 2.02-0.26 4.41 1.33 6.3 0.14 1.08-0.66 1.42-2.58 2.66-2.49 1.07 0.05 1.88 1.42 2.91 1.77 2.03 0.69 4.18-0.76 5.93-3.43 2.77-4.18 3.37-9.38 6.35-4.42 2.52 4.19 7.76 13.63 10.42 12 2.12-1.28 3.23-6.62 5.61-5.92 1.06 0.32 1.88 1.94 2.92 2.23 1.17 0.32 2.18-1.74 3.33-1.65 3.49 0.17 6.5 6.94 9.51 11.12 3.36 4.71 7.84 3.46 11.52 1.92 0.64-0.29 1.43-1.66 2.1-1.19 0.84 0.55 1.13 3.31 2.07 3.6 1.51 0.46 2.78-2.47 4.59-1.69 1.59 0.73 3.09 1.28 4.78 1.08 1.21-0.17 1.52-0.9 2.45-1.83 0.56-0.58 1.96-3.17 2.54-2.96 1.2 0.37 0.93 2.96 1.89 3.77 1.32 1.14 2.03-0.87 3.28-1.8 2.97-2.18 4.8 0.61 7.68-3.45 2.75-3.87 5.44-8.02 7.99-12.87 1.67-3.2 3.34-7.32 5.26-9.24 1.96-1.97 4.01-1.74 5.94-4.85 4.04-6.54 6.75-18.01 11.29-21.96 3.75-3.28 8.25 9.88 12.29 11.44 2.41 0.93 3.3-0.9 5.63 2.71 2.16 3.34 4.17 7.23 6.34 10.69 3.96 6.27 7.97 13.04 12.2 18.38 2.04 2.59 4.08 2.76 6.19 4.85 2.15 2.09 3.27 4.16 5.66 4.13 2.95 0 3.73 3.13 6.04 7.93 0.89 1.8 1.7 3.77 2.65 5.28 1.18 1.86 2.51 0.82 3.56 2.18 1.21 1.57 2.54 7.41 3.58 10.29 2.98 8.33 6.58 10.13 10.42 13.53 1.83 1.6 3.92 3.72 5.61 6.48 2.22 3.63 3.32 7.14 5.87 8.86 2.16 1.48 3.73 5.08 5.79 6.45 1.78 1.16 3.62-1.57 5.21-1.08 1.5 0.47 4.02 5.17 5.32 7.73 3.56 7 6.98 17.78 11.13 23.29 0.99 1.31 2.07 2.42 3.17 3.4 0.71 0.61 1.28 1.83 2.04 1.77 0.61-0.05 0.86-2.17 1.3-2.26 2.68-0.52 7.47 5.84 9.32 11.15z"/>
			<path id="&lt;Path&gt;" class="s1" d="m390.76 465.56c-0.08-3.06-6.1-6.42-8.72-7.18-2.51-0.73-2.71 0.55-4.99 0.37-2.28-0.17-3.44-2.5-4.98-3.61-1.72-1.22-3.77-2.02-5.62-2.98-3.28-1.68-6.67-3-10-4.55-2.78-1.3-4.97-3.7-7.83-4.78-2.64-0.99-5.74-3.55-8.44-3.73-1.38-0.1-2.13 0.89-3.59 0.55-1.04-0.25-2.2-1.67-3.17-2.15-1.85-0.94-5.89-3.88-7.73-4.25-2.78-0.55-6.54 2.35-8.88 3.32-3.23 1.35-5.7 0.52-8.89-0.83-2.4-1.03-5.24-2.41-7.93-2.7-3.01-0.32-4.57 1.93-7.4 1.76-1.91-0.11-1.99-0.87-3.83-0.35-1.75 0.49-3.12 2.02-4.53 3.12-2.83 2.22-5.55 4.62-8.5 6.67-2.43 1.68-5.97 4.59-9.04 4.66-1.98 0.05-4.76-3.23-6.52-1.5-2.46-1.37-5.17-3.43-7.48-5.07-1.11-0.78-2.35-2.7-3.5-3.24-1.21-0.56-2.95-0.32-4.32-0.61-3.67-0.75-4.08-0.85-7.4 2.15-2.64 2.39-5.14 5.54-8.19 7.38-1.03-1.36-2.75-1.54-4.29-1-0.23-0.67-0.96-1.15-1.3-1.84-2.55 2.73-6.92 0.69-9.85-0.16-3.75-1.1-7.32-0.96-11.22-0.41-2.34 0.33-3.46 2.15-5.92 2.14-1.97 0-4.13 0.25-6.05 0.61-2.19 0.41-3.41 2.52-5.49 3.22-1.82 0.61-2.39-0.57-4.02-0.92-1.63-0.35-2.41-0.5-3.93-1.4-1.59-0.96-3.61-2.45-5.42-2.69-0.69-0.1-1.6 0.26-2.35 0.12-0.67-0.12-1.36-0.65-2.06-0.81-1.46-0.34-2.13 0.16-3.49 0.84-1.64 0.81-2.48 0.94-4.29 1.03-0.82 0.05-1.65 0.09-2.42 0.31-0.82 0.23-1.7 0.98-2.49 1.12-0.82 0.14-1.17-0.36-1.92-0.21-0.77 0.15-1.22 0.82-1.82 1.22-0.89-0.55-2.02-2.7-3-2.75-0.8-0.05-2.69 1.79-3.29 2.26-1.07 0.86-2.18 1.99-3.11 2.98-1.07 1.14-0.96 1.69-2.45 1.31-1.85-0.47-1.73-0.98-3.16 0.82-0.8 1-1.4 2.2-2.29 3.16-1.59 1.71-3.96 4.43-6.66 4.03-2.45-0.36-4.38-3.96-6.16-5.56-2-1.81-4.29-4.73-6.91-5.44-2.72-0.74-4.65-1.07-6.65-3.24-1.36-1.48-2.47-4.25-4.51-4.96-1.43-0.51-1.53 0.23-2.9 0.63-0.99 0.29-2.03 0.11-3.02-0.13-1.37-0.34-0.98-0.51-2.3 0.31-0.77 0.48-1.44 1.08-2.26 1.51-1.36 0.7-2.36 0.32-3.73 0.58-1.51 0.28-2.65 1.55-3.99 2.24-1.53 0.79-1.64 0.27-2.89-0.91-2.67-2.54-5.18-5.32-7.76-8-1.63-1.69-4.61-5.31-7.15-4.01-1.75 0.88-2.59 2.97-4.37 3.75-0.92 0.39-3.14 1.28-4.13 0.98-0.79-0.25-1.46-1.53-2.04-2.11-1.5-1.52-3.04-2.12-5.22-2.12-1.67 0-3.26-0.45-4.89-0.7-1.92-0.3-2.22-0.21-3.52-1.6-2.06-2.19-4.67-6.29-7.79-6.43-2.81-0.12-5.54 2.22-8.03 3.37-2.95 1.36-6.68 1.24-8.3 4.13-1.87 3.32-3.34 6.88-5.51 9.99-1.07 1.54-2.35 1.26-3.72 2.32-1.56 1.2-2.92 2.88-4.37 4.22-2.7 2.49-5.05 3.05-8.41 3.82-1.74 0.4-3.14 0.9-4.96 0.92-2.45 0.02-4.35 0.61-6.33 1.98-3.53 2.44-5.62 6.76-9.13 9.34h414.73z"/>
			<path id="&lt;Path&gt;" class="s2" d="m160.94 479.91h243.28q0-2.86 0-5.73c0-0.8 0.33-2.32-0.01-3.08-0.63-1.42-3.4-2.06-4.6-3.08-1.6-1.38-3.29-2.4-4.82-3.78-1.69-1.52-3.48-2.8-5.53-3.85-1.94-0.99-3.46-2-5.21-3.2-0.74-0.51-1.46-0.99-2.14-1.58-1.12-0.94-1.32-1.03-2.77-0.54-1.64 0.54-3.62 1.03-5.42 1.21-1.84 0.2-4.01 0.84-5.76 0.53-1.85-0.33-3.87-1-5.55-1.77-0.74-0.33-1.71-0.6-2.59-0.72-1.18-0.16-1.36 0.22-2.26 1.07-0.76 0.72-0.99 1.06-1.9 0.64-1.37-0.64-2.07-2.12-3.67-1.41-1.18 0.52-1.87 1.76-3.28 1.88-1.52 0.13-3.84-1.13-5.11-1.79-3.22-1.71-5.13-4.93-8.46-6.49-1.54 1.44-3.77-1.8-5.04-2.69-1.12-0.78-1.52-0.81-2.83-0.3-1.17 0.46-2.09 0.97-3.13 1.69-0.81 0.55-1.7 1.42-2.65 1.63-0.56 0.13-1.22-0.11-1.78-0.01-0.61 0.12-1.22 0.57-1.84 0.75-2.13 0.64-4.92 0.56-7.21 0.47-1.17-0.04-2.55 0.25-3.65 0.03-0.63-0.13-0.82-0.48-1.53-0.47-0.62 0.01-1.1 0.27-1.69 0.33-1.17 0.13-2.42-0.14-3.43-0.64-1.6-0.78-1.95-1.74-3.68-0.82-1.45 0.78-4.49 2.54-6.03 2.24-1.23-0.24-1.87-1.24-3.25-1.11-0.61 0.06-1.09 0.37-1.69 0.42-0.68 0.06-1.26-0.32-1.93-0.31-2.01 0.04-3.76 1.3-5.49 2.07-1.96 0.88-4.55 0.65-6.68 0.36-0.37-0.05-0.83-0.31-1.21-0.23-0.49 0.11-0.66 0.62-1.21 0.68-0.87 0.09-1.6-0.46-2.65-0.31-0.92 0.13-1.79 0.23-2.77 0.19-0.7-0.03-0.87-0.16-1.41-0.33-0.33-0.11-1.14-0.59-1.48-0.56-0.69 0.07-0.54 0.56-1.09 0.7-0.77 0.22-1.17-0.16-1.9-0.33-1.71-0.41-2.78 0.12-4.45-0.64-1.58-0.72-3.15-1.5-4.62-2.4-0.96-0.59-1.94-1.37-3.05-1.72-1.14-0.37-2.31-0.32-3.43-0.91-2.34-1.21-3.91-3.35-6.54-4.09-2.17-0.6-4.78 1.84-7.12 2.14-1.39 0.17-1.9-0.17-3.25 0.5-1.25 0.62-2.41 1.35-3.67 1.99-2.3 1.17-4.62 2.43-7.07 3.43-1.18 0.48-2.36 0.51-3.58 0.9-1.24 0.39-1.89 0.77-3.28 0.77-1.7-0.01-2.16 0.58-3.5 1.47-0.51 0.34-0.98 0.71-1.53 0.99-0.67 0.35-1.45 0.15-2.05 0.4-0.71 0.3-1.48 1.38-2.08 1.92-1.72 1.55-3.8 1.89-6.03 2.52-1.06 0.3-2.27 0.69-3.25 1.21-1.28 0.68-1.92 1.33-3.4 1.65-1.25 0.28-2.15 0.95-3.35 1.2-1.03 0.22-2.1-0.29-3.02-0.2-0.86 0.09-2.32 0.96-3.08 1.44-2.06 1.3-4.04 3.31-6.44 4.34q-0.86 0.36-1.83 0.63c-0.42 0.12-0.74 0.34-1.18 0.33-0.36-0.01-0.5-0.4-0.76-0.42-1.55-0.1-4.32 1.09-5.39 2.08z"/>
			<path id="&lt;Path&gt;" class="s3" d="m-30.44 466.29c0 0 5.5-3.99 7.19-4.98 1.71-0.99 2.12-1.39 3.57-2.19 1.45-0.79 1.65-1.99 2.9-2.39 1.24-0.39 2.48-1.38 2.48-1.38 0 0 0.83 0 1.86 0 1.04 0 0.42 0.19 1.86 0 1.46-0.2-0.82 0.39 1.46-0.2 2.27-0.6 2.27 0 3.31-1 1.03-0.99 1.03-0.99 1.03-0.99 0 0 0.72 0.09 1.34 0 0.63-0.1 1.25-0.7 1.76-1 0.52-0.3 1.24 0 1.24 0 0 0 0.53 0.24 1.14-0.13 0.62-0.36 2.08-0.86 2.08-0.86 0 0 0.92 0.8 1.85 0.8 0.94 0 1.56-0.61 2.49-0.8 0.93-0.2 1.66 0.09 2.17 0 0.52-0.1 1.97-0.04 3.62-0.07 1.66-0.03 2.49 0.23 2.9 0 0.41-0.23 0.62 0.02 1.66 0 1.03-0.03 1.03 0.16 1.75 0.37 0.73 0.2 1.25 0.39 1.76 0.2 0.52-0.2 0.31-0.31 1.14-0.2 0.83 0.1 1.66 0 2.18 0 0.51 0 0.82-0.24 1.86-0.47 1.03-0.23 2.38-0.72 2.9-1.02 0.51-0.31 2.48-2.29 3-2.29 0.51 0 1.45 0.79 2.48 0 1.03-0.8 1.76-1.79 1.76-1.79 0 0 3.83-3.38 6.32-5.07 2.47-1.69 3.31-2.39 3.31-2.39 0 0 2.79 1.79 3.82 2.09 1.03 0.3 1.66 0.2 2.59 0.99 0.93 0.8 1.45 1.1 2.17 1.3 0.72 0.19 1.14-0.3 1.76 0.69 0.62 1 0.83 1.3 1.66 1.99 0.82 0.7 1.45 1.19 2.27 1.99 0.83 0.8 1.04 1.19 2.18 1.49 1.13 0.3 2.37 0.5 3.2 1 0.83 0.49 0.83 0.49 0.83 0.49 0 0 3.41-3.48 4.66-2.98 1.24 0.5 1.75 0.9 2.38 1.29 0.62 0.4 0.42 0.2 1.76 0.9 1.35 0.69 1.55 1.09 2.58 1.19 1.04 0.1 1.24-0.5 2.9-0.5 1.66 0 2.28 0.2 2.59 0 0.31-0.19 1.76-0.99 2.17-0.99 0.41 0 1.14-0.4 1.66-0.4 0.51 0 1.03-0.1 1.65 0 0.62 0.1 1.14 0.1 1.86-0.1 0.73-0.2 1.66-0.49 2.07-0.49 0.42 0 0.83-0.5 1.45-0.5 0.62 0 0.93 0 1.35 0.2 0.41 0.2 0.31-0.3 1.24-0.2 0.93 0.1 1.45 0.4 2.07 0.4 0.62 0 0.93-0.3 1.65-0.2 0.73 0.1 1.14 0.39 1.76 0.59 0.62 0.2 1.04 0.4 1.86 0.3 0.83-0.1 0.73-0.2 1.66 0 0.93 0.2 0.72 0.2 1.66 0.2 0.93 0 1.34-0.1 1.76 0 0.41 0.1 0.31 0 0.93 0.1 0.62 0.1 0.62 0.1 0.62 0.1l1.55-1.19c0 0 0.21 0 1.03-0.4 0.83-0.4 0.73 0.1 1.56-0.1 0.82-0.2 1.96-0.9 2.89-1.29 0.93-0.4 1.04-0.9 2.38-1.2 1.35-0.3 2.18-0.39 2.9-0.89 0.73-0.5 1.87-1.79 1.87-1.79 0 0 0.83-0.6 1.34-0.6 0.52 0 1.87-0.5 2.18-0.6 0.31-0.1 0.51-0.29 1.24-0.19 0.72 0.09 1.34 0 1.34 0 0 0 0.42-0.3 0.73-0.1 0.31 0.19 1.55-0.2 1.55-0.2 0 0 1.24-1.99 1.66-2.39 0.41-0.4 1.13-1.09 1.13-1.09 0 0 1.04-0.2 1.87 0 0.82 0.19 1.86 0.69 3.1 0.69 1.24 0 3.11-0.87 4.66-0.78 1.55 0.09 2.79-1.11 3.83-1.8 1.03-0.7 2.06-0.7 3.2 0 1.14 0.69 2.28 2.08 3.52 2.78 1.24 0.7 2.07 1.89 3.11 2.49 1.03 0.59 0.51 1.09 1.13 1.49 0.62 0.4 1.03 0.89 1.66 1.49 0.62 0.6 1.03 1.39 2.69 1.19 1.66-0.19 1.76-0.19 2.9-1.09 1.14-0.9 1.96-1.49 3.2-1.49 1.25 0 1.87-0.1 3.73 0.1 1.86 0.2 2.79 0.1 4.24 1.29 1.45 1.19 1.76 2.69 3.73 4.58 1.96 1.89 1.96 3.78 3.72 3.68 1.76-0.1 2.18 0 3.52-0.4 1.35-0.4 1.45-0.62 3-0.96 1.55-0.33 2.69 0.34 3 0 0.31-0.33 1.14 0.76 3.11 1.36 1.96 0.59 1.34 0.59 3.72 1.39 2.38 0.79 2.9 0.79 4.24 0.99 1.35 0.2 2.28-1.19 2.28-1.19 0 0 0.62 0 1.14 0 0.52 0 0.83-0.2 1.34 0.2 0.52 0.4 1.76-0.1 1.76-0.1 0 0 0.83 0.2 1.76 0.7 0.93 0.49 1.97 1.19 2.69 1.39 0.73 0.2 4.04 0.59 5.69 0.4 1.66-0.2 2.8-0.1 4.56-0.5 1.76-0.4 3.52-0.7 6.1-1.49 2.59-0.8 5.38-3.21 6.11-3.15 0.72 0.06 2.79-0.83 3.2-1.03 0.42-0.2 3.42-1.69 3.42-1.69 0 0 1.03 0.2 2.28 0.2 1.24 0 1.45-0.3 2.89-0.11 1.45 0.21 2.07 0.21 2.07 0.21 0 0 3.42-1.79 4.25-2.59 0.82-0.79 1.44-1.79 1.44-1.79 0 0 1.25 0.79 1.87 1.39 0.62 0.59 0.82 1.29 1.45 1.69 0.62 0.4 2.68-0.1 3.51-0.1 0.83 0 1.55-0.4 3.31 0.6 1.76 0.99 2.07 1.29 3.73 2.19 1.66 0.89 4.66 1.03 4.66 1.03 0 0 2.38-3.52 4.13-4.82 1.76-1.29 3.63-2.68 3.63-2.68 0 0 2.27 0.3 4.14 0.7 1.86 0.4 3.31 0.69 3.31 0.69 0 0 3.2 0.3 5.07 0.7 1.86 0.4 1.96 0.9 3.93 1.39 1.97 0.5 2.48 0.6 4.55 1.29 2.07 0.7 3.42 1.2 4.66 1.3 1.24 0.1 2.27 0 4.76 0.59 2.48 0.6 4.86 0.77 6.2 0.84 1.35 0.06 2.9 0.65 4.25 0.65 1.34 0 3.41-0.42 4.65-0.65 1.24-0.24 4.15-1.63 6.63-3.71 2.48-2.09 4.66-2.39 4.66-2.39 0 0 5.58 1.49 9 1.49 3.42 0 3.73-1.49 6.83 0 3.1 1.49 5.58 4.44 8.38 4.61 2.79 0.17 3.21-0.13 6.88 1.96 3.67 2.08 15.78 8.65 16.71 8.65 0.93 0 4.03 1.19 7.45 2.38 3.41 1.2 8.69 3.58 11.79 5.67 3.11 2.09 5.28 2.69 8.07 3.29 2.8 0.6 7.77 0.6 9.94 1.79 2.17 1.19 12.41 5.96 13.97 6.26 1.55 0.3 10.14 1.39 10.14 1.39h-498.34c0 0 8.53-4.38 15.73-15.71z"/>
		</g>
	</g>
</svg>