<svg version="1.2" xmlns="http://www.w3.org/2000/svg" viewBox="-50 -80 560 700" width="560" height="700">
	<defs>
		<linearGradient id="g1" x2="1" gradientUnits="userSpaceOnUse" gradientTransform="matrix(0,180.037,-393.603,0,284.049,405.837)">
			<stop offset=".071" stop-color="#01ebeb" stop-opacity=".65"/>
			<stop offset=".44" stop-color="#1a275d"/>
		</linearGradient>
		<linearGradient id="g2" x2="1" gradientUnits="userSpaceOnUse" gradientTransform="matrix(0,32.168,-332.777,0,233.299,441.089)">
			<stop offset="0" stop-color="#03f9f9" stop-opacity=".65"/>
			<stop offset=".852" stop-color="#1a275d"/>
		</linearGradient>
		<linearGradient id="g3" x2="1" gradientUnits="userSpaceOnUse" gradientTransform="matrix(0,11.831,75.59,0,324.668,475.536)">
			<stop offset=".009" stop-color="#03f9f9" stop-opacity=".65"/>
			<stop offset=".34" stop-color="#537dc3"/>
		</linearGradient>
		<linearGradient id="g4" x2="1" gradientUnits="userSpaceOnUse" gradientTransform="matrix(0,40.374,-427.451,0,253.223,458.385)">
			<stop offset="0" stop-color="#03f9f9" stop-opacity=".65"/>
			<stop offset=".374" stop-color="#13346b"/>
		</linearGradient>
	</defs>
	<style>
		.s0 { fill: url(#g1) } 
		.s1 { fill: url(#g2) } 
		.s2 { fill: url(#g3) } 
		.s3 { fill: url(#g4) } 
	</style>
	<g id="Layer 1">
		<g id="&lt;Group&gt;">
			<path id="&lt;Path&gt;" class="s0" d="m500.13 596.6h-447.13c0-10.26 21-11.21 21-21.5 0-4.33 5.31-21.75 5.89-25.82 1.09-7.61 5.88-11.04 7.94-16.53 2.77-7.38 5.7-12.89 8.33-20.3 2.92-8.16 6.01-15.02 9.55-20.65 3.34-5.32 5.98-10.72 9-17.2 1.28-2.73 2.53-5.32 3.7-8.45 1.93-5.09 2.28-5.58 4.79-2.97 2.84 2.97 6.24 5.52 9.37 6.54 3.17 1.05 6.92 4.5 9.95 2.82 3.19-1.75 6.67-5.38 9.58-9.44 1.28-1.83 2.95-3.26 4.47-3.89 2.03-0.88 2.36 1.19 3.9 5.75 1.32 3.86 1.72 5.66 3.28 3.42 2.38-3.42 3.59-11.38 6.34-7.58 2.05 2.79 3.23 9.5 5.67 10.14 2.63 0.67 6.63-6.07 8.82-9.67 5.57-9.15 8.87-26.44 14.62-34.8 2.66 7.73 6.52-9.67 8.71-14.44 1.93-4.18 2.62-4.35 4.9-1.62 2.01 2.44 3.59 5.2 5.4 9.06 1.39 2.96 2.94 7.61 4.58 8.74 0.96 0.7 2.1-0.61 3.07-0.03 1.06 0.64 2.11 3.02 3.18 4.04 3.68 3.4 8.5 3.02 12.45 2.5 2.02-0.26 4.41 1.33 6.3 0.14 1.08-0.66 1.42-2.58 2.66-2.49 1.07 0.05 1.88 1.42 2.91 1.77 2.03 0.69 4.18-0.76 5.93-3.43 2.77-4.18 3.37-9.38 6.35-4.42 2.52 4.19 7.76 13.63 10.42 12 2.12-1.28 3.23-6.62 5.61-5.92 1.06 0.32 1.88 1.94 2.92 2.23 1.17 0.32 2.18-1.74 3.33-1.65 3.49 0.17 6.5 6.94 9.51 11.12 3.36 4.71 7.84 3.46 11.52 1.92 0.64-0.29 1.43-1.66 2.1-1.19 0.84 0.55 1.13 3.31 2.07 3.6 1.51 0.46 2.78-2.47 4.59-1.69 1.59 0.73 3.09 1.28 4.78 1.08 1.21-0.17 1.52-0.9 2.45-1.83 0.56-0.58 1.96-3.17 2.54-2.96 1.2 0.37 0.93 2.96 1.89 3.77 1.32 1.14 2.03-0.87 3.28-1.8 2.97-2.18 4.8 0.61 7.68-3.45 2.75-3.87 5.44-8.02 7.99-12.87 1.67-3.2 3.34-7.32 5.26-9.24 1.96-1.97 4.01-1.74 5.94-4.85 4.04-6.54 6.75-18.01 11.29-21.96 3.75-3.28 8.25 9.88 12.29 11.44 2.41 0.93 3.3-0.9 5.63 2.71 2.16 3.34 4.17 7.23 6.34 10.69 3.96 6.27 7.97 13.04 12.2 18.38 2.04 2.59 4.08 2.76 6.19 4.85 2.15 2.09 3.27 4.16 5.66 4.13 2.95 0 3.73 3.13 6.04 7.93 0.89 1.8 1.7 3.77 2.65 5.28 1.18 1.86 2.51 0.82 3.56 2.18 1.21 1.57 2.54 7.41 3.58 10.29 2.98 8.33 6.58 10.13 10.42 13.53 1.83 1.6 3.92 3.72 5.61 6.48 2.22 3.63 3.32 7.14 5.87 8.86 2.16 1.48 3.73 5.08 5.79 6.45 1.78 1.16 3.62-1.57 5.21-1.08 1.5 0.47 4.02 5.17 5.32 7.73 3.56 7 6.98 17.78 11.13 23.29 0.99 1.31 2.07 2.42 3.17 3.4 0.71 0.61 1.28 1.83 2.04 1.77 0.61-0.05 0.86-2.17 1.3-2.26 2.68-0.52 7.47 5.84 9.32 11.15z"/>
			<path id="&lt;Path&gt;" class="s1" d="m434.26 479.7c-0.08-2.99-5.97-6.28-8.53-7.02-2.46-0.72-2.65 0.53-4.88 0.36-2.23-0.17-3.36-2.45-4.87-3.53-1.68-1.2-3.69-1.98-5.5-2.92-3.21-1.65-6.52-2.94-9.78-4.45-2.72-1.28-4.87-3.62-7.66-4.68-2.58-0.97-5.62-3.47-8.26-3.65-1.35-0.09-2.08 0.87-3.51 0.54-1.02-0.24-2.15-1.63-3.1-2.11-1.82-0.91-5.77-3.79-7.56-4.15-2.72-0.54-6.41 2.3-8.69 3.25-3.16 1.32-5.58 0.51-8.7-0.82-2.35-1-5.13-2.35-7.76-2.63-2.94-0.32-4.47 1.89-7.23 1.72-1.87-0.11-1.95-0.85-3.75-0.35-1.72 0.48-3.06 1.98-4.44 3.06-2.76 2.17-5.43 4.51-8.31 6.52-2.38 1.65-5.84 4.49-8.85 4.56-1.93 0.05-4.65-3.16-6.37-1.46-2.41-1.34-5.06-3.36-7.32-4.96-1.08-0.77-2.3-2.65-3.43-3.18-1.18-0.55-2.88-0.31-4.22-0.59-3.59-0.74-3.99-0.84-7.24 2.1-2.59 2.34-5.03 5.42-8.01 7.22-1.01-1.33-2.69-1.5-4.2-0.98-0.22-0.66-0.94-1.12-1.27-1.8-2.49 2.67-6.77 0.67-9.64-0.16-3.66-1.07-7.16-0.93-10.98-0.39-2.28 0.32-3.38 2.09-5.78 2.09-1.94 0-4.04 0.24-5.92 0.59-2.15 0.4-3.34 2.47-5.38 3.15-1.78 0.6-2.33-0.55-3.93-0.89-1.6-0.35-2.35-0.5-3.84-1.38-1.56-0.93-3.54-2.39-5.3-2.63-0.68-0.09-1.57 0.26-2.31 0.12-0.65-0.11-1.33-0.63-2.01-0.79-1.43-0.33-2.08 0.16-3.42 0.82-1.6 0.79-2.42 0.92-4.19 1.01-0.81 0.04-1.61 0.08-2.37 0.3-0.8 0.22-1.66 0.96-2.44 1.09-0.8 0.15-1.14-0.34-1.87-0.2-0.75 0.15-1.19 0.81-1.79 1.19-0.86-0.54-1.97-2.64-2.93-2.69-0.78-0.04-2.63 1.75-3.21 2.22-1.05 0.84-2.14 1.94-3.05 2.91-1.05 1.12-0.94 1.65-2.39 1.28-1.81-0.46-1.7-0.95-3.1 0.8-0.78 0.98-1.36 2.15-2.24 3.1-1.55 1.67-3.87 4.33-6.52 3.94-2.39-0.35-4.29-3.87-6.02-5.44-1.96-1.77-4.2-4.63-6.76-5.33-2.66-0.72-4.55-1.04-6.51-3.17-1.33-1.44-2.41-4.15-4.41-4.85-1.4-0.49-1.49 0.23-2.83 0.62-0.98 0.28-1.99 0.11-2.96-0.13-1.34-0.33-0.96-0.49-2.25 0.31-0.75 0.47-1.41 1.06-2.21 1.47-1.33 0.69-2.31 0.32-3.65 0.57-1.48 0.28-2.59 1.52-3.9 2.2-1.5 0.76-1.61 0.26-2.83-0.9-2.61-2.48-5.06-5.2-7.59-7.82-1.59-1.66-4.51-5.2-7-3.93-1.71 0.87-2.53 2.91-4.28 3.67-0.89 0.39-3.07 1.26-4.03 0.96-0.78-0.24-1.43-1.49-2-2.07-1.47-1.48-2.97-2.07-5.1-2.07-1.64 0-3.19-0.43-4.79-0.68-1.88-0.29-2.17-0.21-3.44-1.56-2.02-2.15-4.57-6.16-7.63-6.3-2.74-0.11-5.41 2.18-7.85 3.3-2.89 1.33-6.54 1.21-8.12 4.04-1.83 3.25-3.26 6.73-5.39 9.77-1.05 1.51-2.3 1.24-3.64 2.27-1.53 1.17-2.86 2.82-4.28 4.13-2.63 2.44-4.94 2.98-8.22 3.74-1.7 0.39-3.07 0.88-4.85 0.9-2.4 0.02-4.26 0.59-6.2 1.94-3.45 2.38-5.49 6.61-8.93 9.13h405.72z"/>
			<path id="&lt;Path&gt;" class="s2" d="m205.94 494.91h243.28q0-2.86 0-5.73c0-0.8 0.33-2.32-0.01-3.08-0.63-1.42-3.4-2.06-4.6-3.08-1.6-1.38-3.29-2.4-4.82-3.78-1.69-1.52-3.48-2.8-5.53-3.85-1.94-0.99-3.46-2-5.21-3.2-0.74-0.51-1.46-0.99-2.14-1.58-1.12-0.94-1.32-1.03-2.77-0.54-1.64 0.54-3.62 1.03-5.42 1.21-1.84 0.2-4.01 0.84-5.76 0.53-1.85-0.33-3.87-1-5.55-1.77-0.74-0.33-1.71-0.6-2.59-0.72-1.18-0.16-1.36 0.22-2.26 1.07-0.76 0.72-0.99 1.06-1.9 0.64-1.37-0.64-2.07-2.12-3.67-1.41-1.18 0.52-1.87 1.76-3.28 1.88-1.52 0.13-3.84-1.13-5.11-1.79-3.22-1.71-5.13-4.93-8.46-6.49-1.54 1.44-3.77-1.8-5.04-2.69-1.12-0.78-1.52-0.81-2.83-0.3-1.17 0.46-2.09 0.97-3.13 1.69-0.81 0.55-1.7 1.42-2.65 1.63-0.56 0.13-1.22-0.11-1.78-0.01-0.61 0.12-1.22 0.57-1.84 0.75-2.13 0.64-4.92 0.56-7.21 0.47-1.17-0.04-2.55 0.25-3.65 0.03-0.63-0.13-0.82-0.48-1.53-0.47-0.62 0.01-1.1 0.27-1.69 0.33-1.17 0.13-2.42-0.14-3.43-0.64-1.6-0.78-1.95-1.74-3.68-0.82-1.45 0.78-4.49 2.54-6.03 2.24-1.23-0.24-1.87-1.24-3.25-1.11-0.61 0.06-1.09 0.37-1.69 0.42-0.68 0.06-1.26-0.32-1.93-0.31-2.01 0.04-3.76 1.3-5.49 2.07-1.96 0.88-4.55 0.65-6.68 0.36-0.37-0.05-0.83-0.31-1.21-0.23-0.49 0.11-0.66 0.62-1.21 0.68-0.87 0.09-1.6-0.46-2.65-0.31-0.92 0.13-1.79 0.23-2.77 0.19-0.7-0.03-0.87-0.16-1.41-0.33-0.33-0.11-1.14-0.59-1.48-0.56-0.69 0.07-0.54 0.56-1.09 0.7-0.77 0.22-1.17-0.16-1.9-0.33-1.71-0.41-2.78 0.12-4.45-0.64-1.58-0.72-3.15-1.5-4.62-2.4-0.96-0.59-1.94-1.37-3.05-1.72-1.14-0.37-2.31-0.32-3.43-0.91-2.34-1.21-3.91-3.35-6.54-4.09-2.17-0.6-4.78 1.84-7.12 2.14-1.39 0.17-1.9-0.17-3.25 0.5-1.25 0.62-2.41 1.35-3.67 1.99-2.3 1.17-4.62 2.43-7.07 3.43-1.18 0.48-2.36 0.51-3.58 0.9-1.24 0.39-1.89 0.77-3.28 0.77-1.7-0.01-2.16 0.58-3.5 1.47-0.51 0.34-0.98 0.71-1.53 0.99-0.67 0.35-1.45 0.15-2.05 0.4-0.71 0.3-1.48 1.38-2.08 1.92-1.72 1.55-3.8 1.89-6.03 2.52-1.06 0.3-2.27 0.69-3.25 1.21-1.28 0.68-1.92 1.33-3.4 1.65-1.25 0.28-2.15 0.95-3.35 1.2-1.03 0.22-2.1-0.29-3.02-0.2-0.86 0.09-2.32 0.96-3.08 1.44-2.06 1.3-4.04 3.31-6.44 4.34q-0.86 0.36-1.83 0.63c-0.42 0.12-0.74 0.34-1.18 0.33-0.36-0.01-0.5-0.4-0.76-0.42-1.55-0.1-4.32 1.09-5.39 2.08z"/>
			<path id="&lt;Path&gt;" class="s3" d="m17.56 481.29c0 0 5.5-3.99 7.19-4.98 1.71-0.99 2.12-1.39 3.57-2.19 1.45-0.79 1.65-1.99 2.9-2.39 1.24-0.39 2.48-1.38 2.48-1.38 0 0 0.83 0 1.86 0 1.04 0 0.42 0.19 1.86 0 1.46-0.2-0.82 0.39 1.46-0.2 2.27-0.6 2.27 0 3.31-1 1.03-0.99 1.03-0.99 1.03-0.99 0 0 0.72 0.09 1.34 0 0.63-0.1 1.25-0.7 1.76-1 0.52-0.3 1.24 0 1.24 0 0 0 0.53 0.24 1.14-0.13 0.62-0.36 2.08-0.86 2.08-0.86 0 0 0.92 0.8 1.85 0.8 0.94 0 1.56-0.61 2.49-0.8 0.93-0.2 1.66 0.09 2.17 0 0.52-0.1 1.97-0.04 3.62-0.07 1.66-0.03 2.49 0.23 2.9 0 0.41-0.23 0.62 0.02 1.66 0 1.03-0.03 1.03 0.16 1.75 0.37 0.73 0.2 1.25 0.39 1.76 0.2 0.52-0.2 0.31-0.31 1.14-0.2 0.83 0.1 1.66 0 2.18 0 0.51 0 0.82-0.24 1.86-0.47 1.03-0.23 2.38-0.72 2.9-1.02 0.51-0.31 2.48-2.29 3-2.29 0.51 0 1.45 0.79 2.48 0 1.03-0.8 1.76-1.79 1.76-1.79 0 0 3.83-3.38 6.32-5.07 2.47-1.69 3.31-2.39 3.31-2.39 0 0 2.79 1.79 3.82 2.09 1.03 0.3 1.66 0.2 2.59 0.99 0.93 0.8 1.45 1.1 2.17 1.3 0.72 0.19 1.14-0.3 1.76 0.69 0.62 1 0.83 1.3 1.66 1.99 0.82 0.7 1.45 1.19 2.27 1.99 0.83 0.8 1.04 1.19 2.18 1.49 1.13 0.3 2.37 0.5 3.2 1 0.83 0.49 0.83 0.49 0.83 0.49 0 0 3.41-3.48 4.66-2.98 1.24 0.5 1.75 0.9 2.38 1.29 0.62 0.4 0.42 0.2 1.76 0.9 1.35 0.69 1.55 1.09 2.58 1.19 1.04 0.1 1.24-0.5 2.9-0.5 1.66 0 2.28 0.2 2.59 0 0.31-0.19 1.76-0.99 2.17-0.99 0.41 0 1.14-0.4 1.66-0.4 0.51 0 1.03-0.1 1.65 0 0.62 0.1 1.14 0.1 1.86-0.1 0.73-0.2 1.66-0.49 2.07-0.49 0.42 0 0.83-0.5 1.45-0.5 0.62 0 0.93 0 1.35 0.2 0.41 0.2 0.31-0.3 1.24-0.2 0.93 0.1 1.45 0.4 2.07 0.4 0.62 0 0.93-0.3 1.65-0.2 0.73 0.1 1.14 0.39 1.76 0.59 0.62 0.2 1.04 0.4 1.86 0.3 0.83-0.1 0.73-0.2 1.66 0 0.93 0.2 0.72 0.2 1.66 0.2 0.93 0 1.34-0.1 1.76 0 0.41 0.1 0.31 0 0.93 0.1 0.62 0.1 0.62 0.1 0.62 0.1l1.55-1.19c0 0 0.21 0 1.03-0.4 0.83-0.4 0.73 0.1 1.56-0.1 0.82-0.2 1.96-0.9 2.89-1.29 0.93-0.4 1.04-0.9 2.38-1.2 1.35-0.3 2.18-0.39 2.9-0.89 0.73-0.5 1.87-1.79 1.87-1.79 0 0 0.83-0.6 1.34-0.6 0.52 0 1.87-0.5 2.18-0.6 0.31-0.1 0.51-0.29 1.24-0.19 0.72 0.09 1.34 0 1.34 0 0 0 0.42-0.3 0.73-0.1 0.31 0.19 1.55-0.2 1.55-0.2 0 0 1.24-1.99 1.66-2.39 0.41-0.4 1.13-1.09 1.13-1.09 0 0 1.04-0.2 1.87 0 0.82 0.19 1.86 0.69 3.1 0.69 1.24 0 3.11-0.87 4.66-0.78 1.55 0.09 2.79-1.11 3.83-1.8 1.03-0.7 2.06-0.7 3.2 0 1.14 0.69 2.28 2.08 3.52 2.78 1.24 0.7 2.07 1.89 3.11 2.49 1.03 0.59 0.51 1.09 1.13 1.49 0.62 0.4 1.03 0.89 1.66 1.49 0.62 0.6 1.03 1.39 2.69 1.19 1.66-0.19 1.76-0.19 2.9-1.09 1.14-0.9 1.96-1.49 3.2-1.49 1.25 0 1.87-0.1 3.73 0.1 1.86 0.2 2.79 0.1 4.24 1.29 1.45 1.19 1.76 2.69 3.73 4.58 1.96 1.89 1.96 3.78 3.72 3.68 1.76-0.1 2.18 0 3.52-0.4 1.35-0.4 1.45-0.62 3-0.96 1.55-0.33 2.69 0.34 3 0 0.31-0.33 1.14 0.76 3.11 1.36 1.96 0.59 1.34 0.59 3.72 1.39 2.38 0.79 2.9 0.79 4.24 0.99 1.35 0.2 2.28-1.19 2.28-1.19 0 0 0.62 0 1.14 0 0.52 0 0.83-0.2 1.34 0.2 0.52 0.4 1.76-0.1 1.76-0.1 0 0 0.83 0.2 1.76 0.7 0.93 0.49 1.97 1.19 2.69 1.39 0.73 0.2 4.04 0.59 5.69 0.4 1.66-0.2 2.8-0.1 4.56-0.5 1.76-0.4 3.52-0.7 6.1-1.49 2.59-0.8 5.38-3.21 6.11-3.15 0.72 0.06 2.79-0.83 3.2-1.03 0.42-0.2 3.42-1.69 3.42-1.69 0 0 1.03 0.2 2.28 0.2 1.24 0 1.45-0.3 2.89-0.11 1.45 0.21 2.07 0.21 2.07 0.21 0 0 3.42-1.79 4.25-2.59 0.82-0.79 1.44-1.79 1.44-1.79 0 0 1.25 0.79 1.87 1.39 0.62 0.59 0.82 1.29 1.45 1.69 0.62 0.4 2.68-0.1 3.51-0.1 0.83 0 1.55-0.4 3.31 0.6 1.76 0.99 2.07 1.29 3.73 2.19 1.66 0.89 4.66 1.03 4.66 1.03 0 0 2.38-3.52 4.13-4.82 1.76-1.29 3.63-2.68 3.63-2.68 0 0 2.27 0.3 4.14 0.7 1.86 0.4 3.31 0.69 3.31 0.69 0 0 3.2 0.3 5.07 0.7 1.86 0.4 1.96 0.9 3.93 1.39 1.97 0.5 2.48 0.6 4.55 1.29 2.07 0.7 3.42 1.2 4.66 1.3 1.24 0.1 2.27 0 4.76 0.59 2.48 0.6 4.86 0.77 6.2 0.84 1.35 0.06 2.9 0.65 4.25 0.65 1.34 0 3.41-0.42 4.65-0.65 1.24-0.24 4.15-1.63 6.63-3.71 2.48-2.09 4.66-2.39 4.66-2.39 0 0 5.58 1.49 9 1.49 3.42 0 3.73-1.49 6.83 0 3.1 1.49 5.58 4.44 8.38 4.61 2.79 0.17 3.21-0.13 6.88 1.96 3.67 2.08 15.78 8.65 16.71 8.65 0.93 0 4.03 1.19 7.45 2.38 3.41 1.2 8.69 3.58 11.79 5.67 3.11 2.09 5.28 2.69 8.07 3.29 2.8 0.6 7.77 0.6 9.94 1.79 2.17 1.19 12.41 5.96 13.97 6.26 1.55 0.3 10.14 1.39 10.14 1.39h-498.34c0 0 8.53-4.38 15.73-15.71z"/>
		</g>
	</g>
</svg>