<svg version="1.2" xmlns="http://www.w3.org/2000/svg" viewBox="0 0 500 500" width="500" height="500">
	<defs>
		<linearGradient id="g1" x2="1" gradientUnits="userSpaceOnUse" gradientTransform="matrix(0,11.831,75.601,0,371.668,495.536)">
			<stop offset=".009" stop-color="#03f9f9" stop-opacity=".65"/>
			<stop offset=".34" stop-color="#537dc3"/>
		</linearGradient>
	</defs>
	<style>
		.s0 { fill: url(#g1) } 
	</style>
	<g id="Layer 1">
		<g id="&lt;Group&gt;">
			<path id="&lt;Path&gt;" class="s0" d="m252.94 514.91h243.28q0-2.86 0-5.73c0-0.8 0.33-2.32-0.01-3.08-0.63-1.42-3.4-2.06-4.6-3.08-1.6-1.38-3.29-2.4-4.82-3.78-1.69-1.52-3.48-2.8-5.53-3.85-1.94-0.99-3.46-2-5.21-3.2-0.74-0.51-1.46-0.99-2.14-1.58-1.12-0.94-1.32-1.03-2.77-0.54-1.64 0.54-3.62 1.03-5.42 1.21-1.84 0.2-4.01 0.84-5.76 0.53-1.85-0.33-3.87-1-5.55-1.77-0.74-0.33-1.71-0.6-2.59-0.72-1.18-0.16-1.36 0.22-2.26 1.07-0.76 0.72-0.99 1.06-1.9 0.64-1.37-0.64-2.07-2.12-3.67-1.41-1.18 0.52-1.87 1.76-3.28 1.88-1.52 0.13-3.84-1.13-5.11-1.79-3.22-1.71-5.13-4.93-8.46-6.49-1.54 1.44-3.77-1.8-5.04-2.69-1.12-0.78-1.52-0.81-2.83-0.3-1.17 0.46-2.09 0.97-3.13 1.69-0.81 0.55-1.7 1.42-2.65 1.63-0.56 0.13-1.22-0.11-1.78-0.01-0.61 0.12-1.22 0.57-1.84 0.75-2.13 0.64-4.92 0.56-7.21 0.47-1.17-0.04-2.55 0.25-3.65 0.03-0.63-0.13-0.82-0.48-1.53-0.47-0.62 0.01-1.1 0.27-1.69 0.33-1.17 0.13-2.42-0.14-3.43-0.64-1.6-0.78-1.95-1.74-3.68-0.82-1.45 0.78-4.49 2.54-6.03 2.24-1.23-0.24-1.87-1.24-3.25-1.11-0.61 0.06-1.09 0.37-1.69 0.42-0.68 0.06-1.26-0.32-1.93-0.31-2.01 0.04-3.76 1.3-5.49 2.07-1.96 0.88-4.55 0.65-6.68 0.36-0.37-0.05-0.83-0.31-1.21-0.23-0.49 0.11-0.66 0.62-1.21 0.68-0.87 0.09-1.6-0.46-2.65-0.31-0.92 0.13-1.79 0.23-2.77 0.19-0.7-0.03-0.87-0.16-1.41-0.33-0.33-0.11-1.14-0.59-1.48-0.56-0.69 0.07-0.54 0.56-1.09 0.7-0.77 0.22-1.17-0.16-1.9-0.33-1.71-0.41-2.78 0.12-4.45-0.64-1.58-0.72-3.15-1.5-4.62-2.4-0.96-0.59-1.94-1.37-3.05-1.72-1.14-0.37-2.31-0.32-3.43-0.91-2.34-1.21-3.91-3.35-6.54-4.09-2.17-0.6-4.78 1.84-7.12 2.14-1.39 0.17-1.9-0.17-3.25 0.5-1.25 0.62-2.41 1.35-3.67 1.99-2.3 1.17-4.62 2.43-7.07 3.43-1.18 0.48-2.36 0.51-3.58 0.9-1.24 0.39-1.89 0.77-3.28 0.77-1.7-0.01-2.16 0.58-3.5 1.47-0.51 0.34-0.98 0.71-1.53 0.99-0.67 0.35-1.45 0.15-2.05 0.4-0.71 0.3-1.48 1.38-2.08 1.92-1.72 1.55-3.8 1.89-6.03 2.52-1.06 0.3-2.27 0.69-3.25 1.21-1.28 0.68-1.92 1.33-3.4 1.65-1.25 0.28-2.15 0.95-3.35 1.2-1.03 0.22-2.1-0.29-3.02-0.2-0.86 0.09-2.32 0.96-3.08 1.44-2.06 1.3-4.04 3.31-6.44 4.34q-0.86 0.36-1.83 0.63c-0.42 0.12-0.74 0.34-1.18 0.33-0.36-0.01-0.5-0.4-0.76-0.42-1.55-0.1-4.32 1.09-5.39 2.08z"/>
		</g>
	</g>
</svg>