<svg version="1.2" xmlns="http://www.w3.org/2000/svg" viewBox="0 0 500 500" width="500" height="500">
	<defs>
		<linearGradient id="g1" x2="1" gradientUnits="userSpaceOnUse" gradientTransform="matrix(0,40.374,-427.497,0,300.223,478.385)">
			<stop offset="0" stop-color="#03f9f9" stop-opacity=".65"/>
			<stop offset=".374" stop-color="#13346b"/>
		</linearGradient>
	</defs>
	<style>
		.s0 { fill: url(#g1) } 
	</style>
	<g id="Layer 1">
		<g id="&lt;Group&gt;">
			<path id="&lt;Path&gt;" class="s0" d="m64.56 501.29c0 0 5.5-3.99 7.19-4.98 1.71-0.99 2.12-1.39 3.57-2.19 1.45-0.79 1.65-1.99 2.9-2.39 1.24-0.39 2.48-1.38 2.48-1.38 0 0 0.83 0 1.86 0 1.04 0 0.42 0.19 1.86 0 1.46-0.2-0.82 0.39 1.46-0.2 2.27-0.6 2.27 0 3.31-1 1.03-0.99 1.03-0.99 1.03-0.99 0 0 0.72 0.09 1.34 0 0.63-0.1 1.25-0.7 1.76-1 0.52-0.3 1.24 0 1.24 0 0 0 0.53 0.24 1.14-0.13 0.62-0.36 2.08-0.86 2.08-0.86 0 0 0.92 0.8 1.85 0.8 0.94 0 1.56-0.61 2.49-0.8 0.93-0.2 1.66 0.09 2.17 0 0.52-0.1 1.97-0.04 3.62-0.07 1.66-0.03 2.49 0.23 2.9 0 0.41-0.23 0.62 0.02 1.66 0 1.03-0.03 1.03 0.16 1.75 0.37 0.73 0.2 1.25 0.39 1.76 0.2 0.52-0.2 0.31-0.31 1.14-0.2 0.83 0.1 1.66 0 2.18 0 0.51 0 0.82-0.24 1.86-0.47 1.03-0.23 2.38-0.72 2.9-1.02 0.51-0.31 2.48-2.29 3-2.29 0.51 0 1.45 0.79 2.48 0 1.03-0.8 1.76-1.79 1.76-1.79 0 0 3.83-3.38 6.32-5.07 2.47-1.69 3.31-2.39 3.31-2.39 0 0 2.79 1.79 3.82 2.09 1.03 0.3 1.66 0.2 2.59 0.99 0.93 0.8 1.45 1.1 2.17 1.3 0.72 0.19 1.14-0.3 1.76 0.69 0.62 1 0.83 1.3 1.66 1.99 0.82 0.7 1.45 1.19 2.27 1.99 0.83 0.8 1.04 1.19 2.18 1.49 1.13 0.3 2.37 0.5 3.2 1 0.83 0.49 0.83 0.49 0.83 0.49 0 0 3.41-3.48 4.66-2.98 1.24 0.5 1.75 0.9 2.38 1.29 0.62 0.4 0.42 0.2 1.76 0.9 1.35 0.69 1.55 1.09 2.58 1.19 1.04 0.1 1.24-0.5 2.9-0.5 1.66 0 2.28 0.2 2.59 0 0.31-0.19 1.76-0.99 2.17-0.99 0.41 0 1.14-0.4 1.66-0.4 0.51 0 1.03-0.1 1.65 0 0.62 0.1 1.14 0.1 1.86-0.1 0.73-0.2 1.66-0.49 2.07-0.49 0.42 0 0.83-0.5 1.45-0.5 0.62 0 0.93 0 1.35 0.2 0.41 0.2 0.31-0.3 1.24-0.2 0.93 0.1 1.45 0.4 2.07 0.4 0.62 0 0.93-0.3 1.65-0.2 0.73 0.1 1.14 0.39 1.76 0.59 0.62 0.2 1.04 0.4 1.86 0.3 0.83-0.1 0.73-0.2 1.66 0 0.93 0.2 0.72 0.2 1.66 0.2 0.93 0 1.34-0.1 1.76 0 0.41 0.1 0.31 0 0.93 0.1 0.62 0.1 0.62 0.1 0.62 0.1l1.55-1.19c0 0 0.21 0 1.03-0.4 0.83-0.4 0.73 0.1 1.56-0.1 0.82-0.2 1.96-0.9 2.89-1.29 0.93-0.4 1.04-0.9 2.38-1.2 1.35-0.3 2.18-0.39 2.9-0.89 0.73-0.5 1.87-1.79 1.87-1.79 0 0 0.83-0.6 1.34-0.6 0.52 0 1.87-0.5 2.18-0.6 0.31-0.1 0.51-0.29 1.24-0.19 0.72 0.09 1.34 0 1.34 0 0 0 0.42-0.3 0.73-0.1 0.31 0.19 1.55-0.2 1.55-0.2 0 0 1.24-1.99 1.66-2.39 0.41-0.4 1.13-1.09 1.13-1.09 0 0 1.04-0.2 1.87 0 0.82 0.19 1.86 0.69 3.1 0.69 1.24 0 3.11-0.87 4.66-0.78 1.55 0.09 2.79-1.11 3.83-1.8 1.03-0.7 2.06-0.7 3.2 0 1.14 0.69 2.28 2.08 3.52 2.78 1.24 0.7 2.07 1.89 3.11 2.49 1.03 0.59 0.51 1.09 1.13 1.49 0.62 0.4 1.03 0.89 1.66 1.49 0.62 0.6 1.03 1.39 2.69 1.19 1.66-0.19 1.76-0.19 2.9-1.09 1.14-0.9 1.96-1.49 3.2-1.49 1.25 0 1.87-0.1 3.73 0.1 1.86 0.2 2.79 0.1 4.24 1.29 1.45 1.19 1.76 2.69 3.73 4.58 1.96 1.89 1.96 3.78 3.72 3.68 1.76-0.1 2.18 0 3.52-0.4 1.35-0.4 1.45-0.62 3-0.96 1.55-0.33 2.69 0.34 3 0 0.31-0.33 1.14 0.76 3.11 1.36 1.96 0.59 1.34 0.59 3.72 1.39 2.38 0.79 2.9 0.79 4.24 0.99 1.35 0.2 2.28-1.19 2.28-1.19 0 0 0.62 0 1.14 0 0.52 0 0.83-0.2 1.34 0.2 0.52 0.4 1.76-0.1 1.76-0.1 0 0 0.83 0.2 1.76 0.7 0.93 0.49 1.97 1.19 2.69 1.39 0.73 0.2 4.04 0.59 5.69 0.4 1.66-0.2 2.8-0.1 4.56-0.5 1.76-0.4 3.52-0.7 6.1-1.49 2.59-0.8 5.38-3.21 6.11-3.15 0.72 0.06 2.79-0.83 3.2-1.03 0.42-0.2 3.42-1.69 3.42-1.69 0 0 1.03 0.2 2.28 0.2 1.24 0 1.45-0.3 2.89-0.11 1.45 0.21 2.07 0.21 2.07 0.21 0 0 3.42-1.79 4.25-2.59 0.82-0.79 1.44-1.79 1.44-1.79 0 0 1.25 0.79 1.87 1.39 0.62 0.59 0.82 1.29 1.45 1.69 0.62 0.4 2.68-0.1 3.51-0.1 0.83 0 1.55-0.4 3.31 0.6 1.76 0.99 2.07 1.29 3.73 2.19 1.66 0.89 4.66 1.03 4.66 1.03 0 0 2.38-3.52 4.13-4.82 1.76-1.29 3.63-2.68 3.63-2.68 0 0 2.27 0.3 4.14 0.7 1.86 0.4 3.31 0.69 3.31 0.69 0 0 3.2 0.3 5.07 0.7 1.86 0.4 1.96 0.9 3.93 1.39 1.97 0.5 2.48 0.6 4.55 1.29 2.07 0.7 3.42 1.2 4.66 1.3 1.24 0.1 2.27 0 4.76 0.59 2.48 0.6 4.86 0.77 6.2 0.84 1.35 0.06 2.9 0.65 4.25 0.65 1.34 0 3.41-0.42 4.65-0.65 1.24-0.24 4.15-1.63 6.63-3.71 2.48-2.09 4.66-2.39 4.66-2.39 0 0 5.58 1.49 9 1.49 3.42 0 3.73-1.49 6.83 0 3.1 1.49 5.58 4.44 8.38 4.61 2.79 0.17 3.21-0.13 6.88 1.96 3.67 2.08 15.78 8.65 16.71 8.65 0.93 0 4.03 1.19 7.45 2.38 3.41 1.2 8.69 3.58 11.79 5.67 3.11 2.09 5.28 2.69 8.07 3.29 2.8 0.6 7.77 0.6 9.94 1.79 2.17 1.19 12.41 5.96 13.97 6.26 1.55 0.3 10.14 1.39 10.14 1.39h-498.34c0 0 8.53-4.38 15.73-15.71z"/>
		</g>
	</g>
</svg>