<svg version="1.2" xmlns="http://www.w3.org/2000/svg" viewBox="0 0 500 500" width="500" height="500">
	<defs>
		<linearGradient id="g1" x2="1" gradientUnits="userSpaceOnUse" gradientTransform="matrix(0,180.037,-393.603,0,331.049,425.837)">
			<stop offset=".071" stop-color="#01ebeb" stop-opacity=".65"/>
			<stop offset=".44" stop-color="#1a275d"/>
		</linearGradient>
	</defs>
	<style>
		.s0 { fill: url(#g1) } 
	</style>
	<g id="Layer 1">
		<g id="&lt;Group&gt;">
			<path id="&lt;Path&gt;" class="s0" d="m547.13 616.6h-447.13c0-10.26 21-11.21 21-21.5 0-4.33 5.31-21.75 5.89-25.82 1.09-7.61 5.88-11.04 7.94-16.53 2.77-7.38 5.7-12.89 8.33-20.3 2.92-8.16 6.01-15.02 9.55-20.65 3.34-5.32 5.98-10.72 9-17.2 1.28-2.73 2.53-5.32 3.7-8.45 1.93-5.09 2.28-5.58 4.79-2.97 2.84 2.97 6.24 5.52 9.37 6.54 3.17 1.05 6.92 4.5 9.95 2.82 3.19-1.75 6.67-5.38 9.58-9.44 1.28-1.83 2.95-3.26 4.47-3.89 2.03-0.88 2.36 1.19 3.9 5.75 1.32 3.86 1.72 5.66 3.28 3.42 2.38-3.42 3.59-11.38 6.34-7.58 2.05 2.79 3.23 9.5 5.67 10.14 2.63 0.67 6.63-6.07 8.82-9.67 5.57-9.15 8.87-26.44 14.62-34.8 2.66 7.73 6.52-9.67 8.71-14.44 1.93-4.18 2.62-4.35 4.9-1.62 2.01 2.44 3.59 5.2 5.4 9.06 1.39 2.96 2.94 7.61 4.58 8.74 0.96 0.7 2.1-0.61 3.07-0.03 1.06 0.64 2.11 3.02 3.18 4.04 3.68 3.4 8.5 3.02 12.45 2.5 2.02-0.26 4.41 1.33 6.3 0.14 1.08-0.66 1.42-2.58 2.66-2.49 1.07 0.05 1.88 1.42 2.91 1.77 2.03 0.69 4.18-0.76 5.93-3.43 2.77-4.18 3.37-9.38 6.35-4.42 2.52 4.19 7.76 13.63 10.42 12 2.12-1.28 3.23-6.62 5.61-5.92 1.06 0.32 1.88 1.94 2.92 2.23 1.17 0.32 2.18-1.74 3.33-1.65 3.49 0.17 6.5 6.94 9.51 11.12 3.36 4.71 7.84 3.46 11.52 1.92 0.64-0.29 1.43-1.66 2.1-1.19 0.84 0.55 1.13 3.31 2.07 3.6 1.51 0.46 2.78-2.47 4.59-1.69 1.59 0.73 3.09 1.28 4.78 1.08 1.21-0.17 1.52-0.9 2.45-1.83 0.56-0.58 1.96-3.17 2.54-2.96 1.2 0.37 0.93 2.96 1.89 3.77 1.32 1.14 2.03-0.87 3.28-1.8 2.97-2.18 4.8 0.61 7.68-3.45 2.75-3.87 5.44-8.02 7.99-12.87 1.67-3.2 3.34-7.32 5.26-9.24 1.96-1.97 4.01-1.74 5.94-4.85 4.04-6.54 6.75-18.01 11.29-21.96 3.75-3.28 8.25 9.88 12.29 11.44 2.41 0.93 3.3-0.9 5.63 2.71 2.16 3.34 4.17 7.23 6.34 10.69 3.96 6.27 7.97 13.04 12.2 18.38 2.04 2.59 4.08 2.76 6.19 4.85 2.15 2.09 3.27 4.16 5.66 4.13 2.95 0 3.73 3.13 6.04 7.93 0.89 1.8 1.7 3.77 2.65 5.28 1.18 1.86 2.51 0.82 3.56 2.18 1.21 1.57 2.54 7.41 3.58 10.29 2.98 8.33 6.58 10.13 10.42 13.53 1.83 1.6 3.92 3.72 5.61 6.48 2.22 3.63 3.32 7.14 5.87 8.86 2.16 1.48 3.73 5.08 5.79 6.45 1.78 1.16 3.62-1.57 5.21-1.08 1.5 0.47 4.02 5.17 5.32 7.73 3.56 7 6.98 17.78 11.13 23.29 0.99 1.31 2.07 2.42 3.17 3.4 0.71 0.61 1.28 1.83 2.04 1.77 0.61-0.05 0.86-2.17 1.3-2.26 2.68-0.52 7.47 5.84 9.32 11.15z"/>
		</g>
	</g>
</svg>