<svg version="1.2" xmlns="http://www.w3.org/2000/svg" viewBox="0 0 500 500" width="500" height="500">
	<defs>
		<linearGradient id="g1" x2="1" gradientUnits="userSpaceOnUse" gradientTransform="matrix(0,32.168,-332.737,0,280.299,461.089)">
			<stop offset="0" stop-color="#03f9f9" stop-opacity=".65"/>
			<stop offset=".852" stop-color="#1a275d"/>
		</linearGradient>
	</defs>
	<style>
		.s0 { fill: url(#g1) } 
	</style>
	<g id="Layer 1">
		<g id="&lt;Group&gt;">
			<path id="&lt;Path&gt;" class="s0" d="m481.26 499.7c-0.08-2.99-5.97-6.28-8.53-7.02-2.46-0.72-2.65 0.53-4.88 0.36-2.23-0.17-3.36-2.45-4.87-3.53-1.68-1.2-3.69-1.98-5.5-2.92-3.21-1.65-6.52-2.94-9.78-4.45-2.72-1.28-4.87-3.62-7.66-4.68-2.58-0.97-5.62-3.47-8.26-3.65-1.35-0.09-2.08 0.87-3.51 0.54-1.02-0.24-2.15-1.63-3.1-2.11-1.82-0.91-5.77-3.79-7.56-4.15-2.72-0.54-6.41 2.3-8.69 3.25-3.16 1.32-5.58 0.51-8.7-0.82-2.35-1-5.13-2.35-7.76-2.63-2.94-0.32-4.47 1.89-7.23 1.72-1.87-0.11-1.95-0.85-3.75-0.35-1.72 0.48-3.06 1.98-4.44 3.06-2.76 2.17-5.43 4.51-8.31 6.52-2.38 1.65-5.84 4.49-8.85 4.56-1.93 0.05-4.65-3.16-6.37-1.46-2.41-1.34-5.06-3.36-7.32-4.96-1.08-0.77-2.3-2.65-3.43-3.18-1.18-0.55-2.88-0.31-4.22-0.59-3.59-0.74-3.99-0.84-7.24 2.1-2.59 2.34-5.03 5.42-8.01 7.22-1.01-1.33-2.69-1.5-4.2-0.98-0.22-0.66-0.94-1.12-1.27-1.8-2.49 2.67-6.77 0.67-9.64-0.16-3.66-1.07-7.16-0.93-10.98-0.39-2.28 0.32-3.38 2.09-5.78 2.09-1.94 0-4.04 0.24-5.92 0.59-2.15 0.4-3.34 2.47-5.38 3.15-1.78 0.6-2.33-0.55-3.93-0.89-1.6-0.35-2.35-0.5-3.84-1.38-1.56-0.93-3.54-2.39-5.3-2.63-0.68-0.09-1.57 0.26-2.31 0.12-0.65-0.11-1.33-0.63-2.01-0.79-1.43-0.33-2.08 0.16-3.42 0.82-1.6 0.79-2.42 0.92-4.19 1.01-0.81 0.04-1.61 0.08-2.37 0.3-0.8 0.22-1.66 0.96-2.44 1.09-0.8 0.15-1.14-0.34-1.87-0.2-0.75 0.15-1.19 0.81-1.79 1.19-0.86-0.54-1.97-2.64-2.93-2.69-0.78-0.04-2.63 1.75-3.21 2.22-1.05 0.84-2.14 1.94-3.05 2.91-1.05 1.12-0.94 1.65-2.39 1.28-1.81-0.46-1.7-0.95-3.1 0.8-0.78 0.98-1.36 2.15-2.24 3.1-1.55 1.67-3.87 4.33-6.52 3.94-2.39-0.35-4.29-3.87-6.02-5.44-1.96-1.77-4.2-4.63-6.76-5.33-2.66-0.72-4.55-1.04-6.51-3.17-1.33-1.44-2.41-4.15-4.41-4.85-1.4-0.49-1.49 0.23-2.83 0.62-0.98 0.28-1.99 0.11-2.96-0.13-1.34-0.33-0.96-0.49-2.25 0.31-0.75 0.47-1.41 1.06-2.21 1.47-1.33 0.69-2.31 0.32-3.65 0.57-1.48 0.28-2.59 1.52-3.9 2.2-1.5 0.76-1.61 0.26-2.83-0.9-2.61-2.48-5.06-5.2-7.59-7.82-1.59-1.66-4.51-5.2-7-3.93-1.71 0.87-2.53 2.91-4.28 3.67-0.89 0.39-3.07 1.26-4.03 0.96-0.78-0.24-1.43-1.49-2-2.07-1.47-1.48-2.97-2.07-5.1-2.07-1.64 0-3.19-0.43-4.79-0.68-1.88-0.29-2.17-0.21-3.44-1.56-2.02-2.15-4.57-6.16-7.63-6.3-2.74-0.11-5.41 2.18-7.85 3.3-2.89 1.33-6.54 1.21-8.12 4.04-1.83 3.25-3.26 6.73-5.39 9.77-1.05 1.51-2.3 1.24-3.64 2.27-1.53 1.17-2.86 2.82-4.28 4.13-2.63 2.44-4.94 2.98-8.22 3.74-1.7 0.39-3.07 0.88-4.85 0.9-2.4 0.02-4.26 0.59-6.2 1.94-3.45 2.38-5.49 6.61-8.93 9.13h405.72z"/>
		</g>
	</g>
</svg>