<svg xmlns="http://www.w3.org/2000/svg" viewBox="0 0 1440 200" preserveAspectRatio="none" aria-hidden="true">
  <!-- Fläche unter der Kurve: dezent, eine durchgehende Welle, kein Zickzack -->
  <path
    fill="#03f9f9"
    fill-opacity="0.06"
    d="M 0,160
       C 70,157 110,112 180,92
       C 235,76 305,122 360,150
       C 415,172 475,109 540,86
       C 595,70 665,116 720,146
       C 775,172 835,106 900,90
       C 955,74 1025,122 1080,152
       C 1135,172 1195,108 1260,94
       C 1315,78 1385,132 1440,160
       L 1440,200 L 0,200 Z"
  />
  <!-- Cyan-Kammlinie (B-Style Kurve) -->
  <path
    fill="none"
    stroke="#03f9f9"
    stroke-width="2"
    stroke-opacity="0.5"
    d="M 0,146
       C 70,143 110,98 180,78
       C 235,62 305,108 360,136
       C 415,158 475,95 540,72
       C 595,56 665,102 720,132
       C 775,158 835,92 900,76
       C 955,60 1025,108 1080,138
       C 1135,158 1195,94 1260,80
       C 1315,64 1385,118 1440,146"
  />
</svg>
