<?xml version="1.0" standalone="no"?>
<!DOCTYPE svg PUBLIC "-//W3C//DTD SVG 20010904//EN"
 "http://www.w3.org/TR/2001/REC-SVG-20010904/DTD/svg10.dtd">
<svg version="1.0" xmlns="http://www.w3.org/2000/svg"
 width="1080.000000pt" height="1080.000000pt" viewBox="0 0 1080.000000 1080.000000"
 preserveAspectRatio="xMidYMid meet">

<defs>
<clipPath id="round-frame">
<circle cx="540" cy="540" r="540"/>
</clipPath>
</defs>
<g clip-path="url(#round-frame)">
<circle cx="540" cy="540" r="540" fill="#03F9F9"/>
<g transform="translate(0.000000,1080.000000) scale(0.100000,-0.100000)"
fill="#283569" stroke="none">
<path d="M0 5400 l0 -5400 5400 0 5400 0 0 5400 0 5400 -5400 0 -5400 0 0
-5400z m5099 3869 c373 -72 714 -271 949 -553 272 -327 421 -730 439 -1186 18
-485 -136 -947 -434 -1296 -36 -42 -61 -79 -57 -83 5 -4 40 -30 79 -56 232
-163 459 -402 641 -675 552 -832 622 -1917 177 -2770 -373 -715 -1069 -1203
-1889 -1324 -54 -8 -119 -16 -144 -18 l-45 -3 -3 1058 -2 1057 27 0 c16 0 71
7 123 15 635 96 1076 624 1011 1208 -28 258 -138 476 -336 666 -205 197 -446
303 -767 336 l-58 6 1 432 c1 238 4 456 7 486 l7 54 70 14 c217 44 407 143
556 292 147 147 231 307 275 521 22 111 15 321 -14 432 -98 368 -399 634 -807
717 l-90 18 -3 343 -2 343 92 -7 c51 -4 139 -16 197 -27z"/>
</g>
</g>
</svg>
