<?xml version="1.0" encoding="UTF-8" standalone="no"?>
<!-- Created with Inkscape (http://www.inkscape.org/) -->

<svg
   version="1.1"
   id="svg1"
   width="49.333332"
   height="40"
   viewBox="0 0 49.333332 40"
   sodipodi:docname="Schweinchen_RGB_EPS.eps"
   xmlns:inkscape="http://www.inkscape.org/namespaces/inkscape"
   xmlns:sodipodi="http://sodipodi.sourceforge.net/DTD/sodipodi-0.dtd"
   xmlns="http://www.w3.org/2000/svg"
   xmlns:svg="http://www.w3.org/2000/svg">
  <defs
     id="defs1" />
  <sodipodi:namedview
     id="namedview1"
     pagecolor="#ffffff"
     bordercolor="#000000"
     borderopacity="0.25"
     inkscape:showpageshadow="2"
     inkscape:pageopacity="0.0"
     inkscape:pagecheckerboard="0"
     inkscape:deskcolor="#d1d1d1">
    <inkscape:page
       x="0"
       y="0"
       inkscape:label="1"
       id="page1"
       width="49.333332"
       height="40"
       margin="0"
       bleed="0" />
  </sodipodi:namedview>
  <g
     id="g1"
     inkscape:groupmode="layer"
     inkscape:label="1">
    <path
       id="path1"
       d="m 281.645,176.172 c -7.563,11.398 -5.118,27.191 0.531,34.523 -0.352,-15.304 14.703,-28.726 22.512,-34.488 z m 73.605,2.117 c -15.801,0.223 -36.613,-4.07 -32.457,17.555 1.176,6.125 4.352,12.82 7.52,18 l 9.984,16.488 c -36.481,-10.773 -63.758,4.191 -86.43,21.148 -21.101,15.786 -52.777,23.024 -79.109,13.583 -3.805,-1.364 -6.945,-3.532 -10.258,-4.278 -6.012,7.891 -7.09,11.309 -18.641,15.637 -5.984,2.242 -22.339,5.539 -29.367,6.121 1.047,-13.691 2.75,-31.539 13.113,-41.211 4.254,-3.973 6.641,-3.711 11.004,-6.41 C 137.813,228.816 69.7891,125.832 60.6797,110.371 48.8477,90.2734 47.4609,83.1914 48.0234,55.8203 36.9961,48.3984 24.3945,56.5977 23.3242,67.957 c -0.5,5.2891 0.8946,13.7383 7.3281,13.75 8.086,0.0196 4.7071,-8.1953 6.5586,-12.7109 11.3711,6.6953 8.461,27.2031 -9.375,25.9375 C -9.55859,92.2773 3.24219,6.19922 60.4375,30.668 73.2109,13.0547 101.664,15.3516 118.25,15.3477 c 12.523,-0.0039 65.926,-0.6446 73.613,0.3125 -3.445,23.6718 -22.422,21.4218 -46.082,20.8476 4.543,10.6055 12.489,21.9063 4.285,40.2422 -4.687,10.4922 -13.726,20.7539 -26.793,22.8242 13.825,0.5278 24.891,-8.8164 30.133,-16.4219 10.574,-15.332 5.176,-29.6523 3.754,-39.6445 9.645,1.0664 16.129,4.8242 24.215,7.1797 -2.934,10.3477 -5.746,22.2266 -5.902,33.8945 5.519,-14.7968 16.8,-43.6367 17.265,-58.5273 14.176,-0.3711 4.266,-4.0742 12.391,-12.2578 4.957,-5.00002 13.035,-5.37893 21.324,-4.09768 0.527,4.98828 -0.89,8.07418 -1.543,12.36718 1.235,-1.7266 2.113,-2.2851 3.496,-4.6328 2.532,-4.3047 1.082,-3.6875 4.508,-6.0625 l 3.617,2.9258 c 0.168,7.8633 -1.761,11.0429 -5.519,15.539 -4.637,5.5508 -5.828,3.1954 -7.375,13.1133 -1.375,8.8242 -3.961,28.4453 -6.407,35.5039 6.036,5.5039 19.227,24.6639 23.711,34.7929 14.317,32.34 35.383,40.027 69.368,50.567 l 33.664,10.652 c 3.562,1.117 7.832,2.957 11.277,3.824"
       style="fill:#283569;fill-opacity:1;fill-rule:evenodd;stroke:none"
       transform="matrix(0.13333333,0,0,-0.13333333,0,40)" />
    <path
       id="path2"
       d="m 233.836,32.9609 c 0.269,-0.1328 0.695,0.0391 0.855,-0.3086 l 2.493,-0.746 c 0.949,-0.2188 2.023,-0.2813 2.875,-0.4532 1.648,-7.1445 1.918,-10.6562 7.343,-13.7695 4.707,-2.6953 12.575,-3.6875 19.043,-1.8164 l -1.211,11.7539 6.532,-9.9688 5.113,2.4297 c -0.121,5.1094 -1.102,8.2188 -3.246,12.0196 -8.664,15.3476 -6.203,-4.9766 -13.672,32.4257 l -7.539,37.7347 c -0.442,2.312 -0.805,4.359 -1.238,6.644 -0.043,0.235 -0.653,3.098 -0.723,3.309 l -1.563,3.254 c -4.328,-14.211 -15.003,-25.7346 -22.054,-35.4221 -3.746,-5.1524 1.179,-15.7617 2.746,-22.9688 1.531,-7.0508 2.644,-18.5742 4.246,-24.1172"
       style="fill:#283569;fill-opacity:1;fill-rule:evenodd;stroke:none"
       transform="matrix(0.13333333,0,0,-0.13333333,0,40)" />
    <path
       id="path3"
       d="m 357.379,190.227 c -6.625,2.136 -7.824,13.277 -2.953,18.238 4.699,-0.238 5.469,-2.945 6.101,-8.027 0.571,-4.641 0.528,-7.618 -3.148,-10.211 z m -21.652,0.195 c -5.973,6.488 0.011,20.527 5.269,18.168 4.645,-2.082 3.793,-17.945 -5.269,-18.168 z m 4.57,39.91 -9.984,-16.488 c -3.168,-5.18 -6.344,-11.875 -7.52,-18 -4.156,-21.625 16.656,-17.332 32.457,-17.555 7.336,1.418 11.352,4.473 12.168,12.336 0.734,7.125 -1.383,14.438 -3.434,20.285 -3.41,9.719 -10.742,28.735 -23.687,19.422"
       style="fill:#03f9f9;fill-opacity:1;fill-rule:evenodd;stroke:none"
       transform="matrix(0.13333333,0,0,-0.13333333,0,40)" />
    <path
       id="path4"
       d="m 225.285,232.563 -6.66,-0.047 -0.008,-0.008 c -0.16,-4.914 -3.894,-8.844 -8.476,-8.844 -4.61,0 -8.36,3.977 -8.485,8.926 l -16.129,-0.051 c 0.805,-9.969 8.453,-17.926 19.34,-18.062 10.442,-0.137 20.235,7.671 20.418,18.086"
       style="fill:#03f9f9;fill-opacity:1;fill-rule:evenodd;stroke:none"
       transform="matrix(0.13333333,0,0,-0.13333333,0,40)" />
    <path
       id="path5"
       d="m 172.688,272.512 c 6.019,0.09 14.96,3.394 24.445,3.445 -1.356,10.902 -4.715,14.891 -6.707,23.531 -5.203,-1.633 -9.395,-6.929 -11.918,-10.695 -3.156,-4.699 -5.039,-9.582 -5.82,-16.281"
       style="fill:#283569;fill-opacity:1;fill-rule:evenodd;stroke:none"
       transform="matrix(0.13333333,0,0,-0.13333333,0,40)" />
    <path
       id="path6"
       d="m 281.645,176.172 23.043,0.035 c -7.809,5.762 -22.864,19.184 -22.512,34.488 -5.649,-7.332 -8.094,-23.125 -0.531,-34.523"
       style="fill:#fdfdfd;fill-opacity:1;fill-rule:evenodd;stroke:none"
       transform="matrix(0.13333333,0,0,-0.13333333,0,40)" />
    <path
       id="path7"
       d="m 266.547,232.574 -5.231,-0.054 c -1.359,-9.684 -13.875,-9.2 -15.183,-0.012 l -7.36,0.015 c 1.2,-17.613 27.145,-16.445 27.774,0.051"
       style="fill:#03f9f9;fill-opacity:1;fill-rule:evenodd;stroke:none"
       transform="matrix(0.13333333,0,0,-0.13333333,0,40)" />
    <path
       id="path8"
       d="m 335.727,190.422 c 9.062,0.223 9.914,16.086 5.269,18.168 -5.258,2.359 -11.242,-11.68 -5.269,-18.168"
       style="fill:#012142;fill-opacity:1;fill-rule:evenodd;stroke:none"
       transform="matrix(0.13333333,0,0,-0.13333333,0,40)" />
    <path
       id="path9"
       d="m 357.379,190.227 c 3.676,2.593 3.719,5.57 3.148,10.211 -0.632,5.082 -1.402,7.789 -6.101,8.027 -4.871,-4.961 -3.672,-16.102 2.953,-18.238"
       style="fill:#012142;fill-opacity:1;fill-rule:evenodd;stroke:none"
       transform="matrix(0.13333333,0,0,-0.13333333,0,40)" />
  </g>
</svg>
